<svg width="133" height="118" viewBox="0 0 133 118" fill="none" xmlns="http://www.w3.org/2000/svg">
<g filter="url(#filter0_d_2027_2759)">
<path d="M14.7188 42.374H119.283V50.0917C119.283 59.3843 115.583 68.2963 108.996 74.8671C102.409 81.438 93.4753 85.1295 84.16 85.1295H49.8421C40.5268 85.1295 31.5931 81.438 25.0061 74.8671C18.4192 68.2963 14.7188 59.3843 14.7188 50.0917V42.374Z" fill="url(#paint0_linear_2027_2759)"/>
</g>
<g filter="url(#filter1_dd_2027_2759)">
<path d="M64.2335 72.208L4.80473 41.926C3.95916 41.4943 3.24968 40.8379 2.75471 40.0292C2.25974 39.2204 1.99855 38.291 2.00001 37.3434C2.00146 36.3959 2.2655 35.4672 2.76295 34.66C3.2604 33.8528 3.97189 33.1985 4.81878 32.7694L64.2381 2.66031C65.0934 2.22625 66.0393 2 66.9988 2C67.9584 2 68.9043 2.22625 69.7595 2.66031L129.188 32.8395C130.035 33.2699 130.745 33.9252 131.241 34.7332C131.737 35.5412 132 36.4702 132 37.4178C132 38.3653 131.737 39.2944 131.241 40.1024C130.745 40.9103 130.035 41.5657 129.188 41.9961L69.7642 72.2033C68.9072 72.6397 67.9587 72.8672 66.9965 72.8672C66.0343 72.8672 65.0858 72.6397 64.2288 72.2033L64.2335 72.208Z" fill="url(#paint1_linear_2027_2759)"/>
</g>
<g filter="url(#filter2_f_2027_2759)">
<path d="M69.5254 66.9009L127.914 36.0957" stroke="url(#paint2_linear_2027_2759)" stroke-width="0.7" stroke-linecap="round"/>
</g>
<g filter="url(#filter3_f_2027_2759)">
<path d="M100.987 57.8473L94.3974 61.1969V58.861C94.3974 55.745 93.99 53.4045 89.9719 51.4751L63.8729 37.8617C63.0851 37.4394 62.4933 36.7275 62.2231 35.8771C61.9529 35.0266 62.0256 34.1046 62.4258 33.3068C62.6164 32.9139 62.884 32.5632 63.2128 32.2753C63.5416 31.9873 63.9249 31.7681 64.3401 31.6305C64.7553 31.4928 65.1939 31.4396 65.6301 31.474C66.0662 31.5084 66.4911 31.6296 66.8794 31.8305L92.9831 45.4392C95.2712 46.6504 97.2093 48.4274 98.6115 50.6C100.014 52.7727 100.833 55.2681 100.991 57.8473H100.987Z" fill="url(#paint3_linear_2027_2759)"/>
</g>
<g filter="url(#filter4_f_2027_2759)">
<path d="M103.37 55.1235L96.7812 58.4731V56.1372C96.7812 53.0212 96.3738 50.6807 92.3557 48.7513L66.252 35.1379C65.465 34.7149 64.8743 34.0026 64.605 33.1522C64.3357 32.3019 64.4091 31.3803 64.8096 30.583C64.9998 30.1904 65.2669 29.8397 65.5952 29.5517C65.9234 29.2637 66.3062 29.0442 66.7209 28.9062C67.1356 28.7681 67.5738 28.7144 68.0096 28.748C68.4454 28.7817 68.8701 28.902 69.2586 29.1021L95.3623 42.7154C97.6504 43.9266 99.5884 45.7036 100.991 47.8763C102.393 50.0489 103.212 52.5443 103.37 55.1235Z" fill="url(#paint4_linear_2027_2759)"/>
</g>
<g filter="url(#filter5_d_2027_2759)">
<path fill-rule="evenodd" clip-rule="evenodd" d="M64.8189 29.0833C65.2284 28.2838 65.9394 27.6791 66.7956 27.4023C67.6518 27.1255 68.5831 27.1991 69.3849 27.607L96.1442 41.2157C98.6245 42.478 100.707 44.3994 102.161 46.7679C103.616 49.1365 104.386 51.8599 104.387 54.6375V81.939C104.387 82.8372 104.029 83.6987 103.392 84.3339C102.755 84.9691 101.892 85.3259 100.991 85.3259C100.091 85.3259 99.2272 84.9691 98.5904 84.3339C97.9537 83.6987 97.596 82.8372 97.596 81.939V54.6375C97.596 51.5215 95.8398 48.6671 93.0534 47.2562L66.2987 33.6382C65.4972 33.2297 64.8911 32.5205 64.6136 31.6663C64.3362 30.8122 64.41 29.8831 64.8189 29.0833Z" fill="url(#paint5_linear_2027_2759)"/>
</g>
<path fill-rule="evenodd" clip-rule="evenodd" d="M64.8189 29.0833C65.2284 28.2838 65.9394 27.6791 66.7956 27.4023C67.6518 27.1255 68.5831 27.1991 69.3849 27.607L96.1442 41.2157C98.6245 42.478 100.707 44.3994 102.161 46.7679C103.616 49.1365 104.386 51.8599 104.387 54.6375V81.939C104.387 82.8372 104.029 83.6987 103.392 84.3339C102.755 84.9691 101.892 85.3259 100.991 85.3259C100.091 85.3259 99.2272 84.9691 98.5904 84.3339C97.9537 83.6987 97.596 82.8372 97.596 81.939V54.6375C97.596 51.5215 95.8398 48.6671 93.0534 47.2562L66.2987 33.6382C65.4972 33.2297 64.8911 32.5205 64.6136 31.6663C64.3362 30.8122 64.41 29.8831 64.8189 29.0833Z" fill="url(#paint6_radial_2027_2759)"/>
<path fill-rule="evenodd" clip-rule="evenodd" d="M64.8189 29.0833C65.2284 28.2838 65.9394 27.6791 66.7956 27.4023C67.6518 27.1255 68.5831 27.1991 69.3849 27.607L96.1442 41.2157C98.6245 42.478 100.707 44.3994 102.161 46.7679C103.616 49.1365 104.386 51.8599 104.387 54.6375V81.939C104.387 82.8372 104.029 83.6987 103.392 84.3339C102.755 84.9691 101.892 85.3259 100.991 85.3259C100.091 85.3259 99.2272 84.9691 98.5904 84.3339C97.9537 83.6987 97.596 82.8372 97.596 81.939V54.6375C97.596 51.5215 95.8398 48.6671 93.0534 47.2562L66.2987 33.6382C65.4972 33.2297 64.8911 32.5205 64.6136 31.6663C64.3362 30.8122 64.41 29.8831 64.8189 29.0833Z" fill="url(#paint7_linear_2027_2759)"/>
<path fill-rule="evenodd" clip-rule="evenodd" d="M64.8189 29.0833C65.2284 28.2838 65.9394 27.6791 66.7956 27.4023C67.6518 27.1255 68.5831 27.1991 69.3849 27.607L96.1442 41.2157C98.6245 42.478 100.707 44.3994 102.161 46.7679C103.616 49.1365 104.386 51.8599 104.387 54.6375V81.939C104.387 82.8372 104.029 83.6987 103.392 84.3339C102.755 84.9691 101.892 85.3259 100.991 85.3259C100.091 85.3259 99.2272 84.9691 98.5904 84.3339C97.9537 83.6987 97.596 82.8372 97.596 81.939V54.6375C97.596 51.5215 95.8398 48.6671 93.0534 47.2562L66.2987 33.6382C65.4972 33.2297 64.8911 32.5205 64.6136 31.6663C64.3362 30.8122 64.41 29.8831 64.8189 29.0833Z" fill="url(#paint8_linear_2027_2759)"/>
<path d="M97.6243 81.9014C94.5849 83.144 93.1753 85.7462 93.1753 88.5819C93.1753 90.6486 93.9983 92.6306 95.4632 94.092C96.9281 95.5533 98.915 96.3743 100.987 96.3743C103.058 96.3743 105.045 95.5533 106.51 94.092C107.975 92.6306 108.798 90.6486 108.798 88.5819C108.798 85.7462 107.136 83.2141 104.391 81.9014H97.6243Z" fill="url(#paint9_radial_2027_2759)"/>
<path d="M97.6243 81.9014C94.5849 83.144 93.1753 85.7462 93.1753 88.5819C93.1753 90.6486 93.9983 92.6306 95.4632 94.092C96.9281 95.5533 98.915 96.3743 100.987 96.3743C103.058 96.3743 105.045 95.5533 106.51 94.092C107.975 92.6306 108.798 90.6486 108.798 88.5819C108.798 85.7462 107.136 83.2141 104.391 81.9014H97.6243Z" fill="url(#paint10_radial_2027_2759)"/>
<path d="M97.6243 81.9014C94.5849 83.144 93.1753 85.7462 93.1753 88.5819C93.1753 90.6486 93.9983 92.6306 95.4632 94.092C96.9281 95.5533 98.915 96.3743 100.987 96.3743C103.058 96.3743 105.045 95.5533 106.51 94.092C107.975 92.6306 108.798 90.6486 108.798 88.5819C108.798 85.7462 107.136 83.2141 104.391 81.9014H97.6243Z" fill="url(#paint11_radial_2027_2759)"/>
<path d="M92.0372 106.068L95.025 93.6885H106.859L109.913 105.961C110.339 107.353 110.433 108.825 110.186 110.26C109.939 111.695 109.359 113.052 108.492 114.222C107.624 115.393 106.494 116.344 105.191 117C103.889 117.656 102.45 117.999 100.991 118C99.5409 118.001 98.1104 117.664 96.8133 117.017C95.5162 116.369 94.3882 115.429 93.519 114.271C92.6498 113.113 92.0633 111.768 91.8061 110.345C91.5489 108.921 91.628 107.457 92.0372 106.068Z" fill="#FF9D4E"/>
<path d="M92.0372 106.068L95.025 93.6885H106.859L109.913 105.961C110.339 107.353 110.433 108.825 110.186 110.26C109.939 111.695 109.359 113.052 108.492 114.222C107.624 115.393 106.494 116.344 105.191 117C103.889 117.656 102.45 117.999 100.991 118C99.5409 118.001 98.1104 117.664 96.8133 117.017C95.5162 116.369 94.3882 115.429 93.519 114.271C92.6498 113.113 92.0633 111.768 91.8061 110.345C91.5489 108.921 91.628 107.457 92.0372 106.068Z" fill="url(#paint12_linear_2027_2759)"/>
<path d="M92.0372 106.068L95.025 93.6885H106.859L109.913 105.961C110.339 107.353 110.433 108.825 110.186 110.26C109.939 111.695 109.359 113.052 108.492 114.222C107.624 115.393 106.494 116.344 105.191 117C103.889 117.656 102.45 117.999 100.991 118C99.5409 118.001 98.1104 117.664 96.8133 117.017C95.5162 116.369 94.3882 115.429 93.519 114.271C92.6498 113.113 92.0633 111.768 91.8061 110.345C91.5489 108.921 91.628 107.457 92.0372 106.068Z" fill="url(#paint13_radial_2027_2759)"/>
<path d="M92.0372 106.068L95.025 93.6885H106.859L109.913 105.961C110.339 107.353 110.433 108.825 110.186 110.26C109.939 111.695 109.359 113.052 108.492 114.222C107.624 115.393 106.494 116.344 105.191 117C103.889 117.656 102.45 117.999 100.991 118C99.5409 118.001 98.1104 117.664 96.8133 117.017C95.5162 116.369 94.3882 115.429 93.519 114.271C92.6498 113.113 92.0633 111.768 91.8061 110.345C91.5489 108.921 91.628 107.457 92.0372 106.068Z" fill="url(#paint14_radial_2027_2759)"/>
<path d="M116.562 18.5345C116.884 17.6639 118.116 17.6639 118.438 18.5345L120.176 23.2328C120.278 23.5065 120.493 23.7223 120.767 23.8236L125.465 25.5621C126.336 25.8843 126.336 27.1157 125.465 27.4379L120.767 29.1764C120.493 29.2777 120.278 29.4935 120.176 29.7672L118.438 34.4655C118.116 35.3361 116.884 35.3361 116.562 34.4655L114.824 29.7672C114.722 29.4935 114.507 29.2777 114.233 29.1764L109.535 27.4379C108.664 27.1157 108.664 25.8843 109.535 25.5621L114.233 23.8236C114.507 23.7223 114.722 23.5065 114.824 23.2328L116.562 18.5345Z" fill="url(#paint15_linear_2027_2759)"/>
<path d="M26.6243 7.06901C27.2686 5.32777 29.7314 5.32778 30.3757 7.06901L32.9074 13.9109C33.11 14.4584 33.5416 14.89 34.0891 15.0926L40.931 17.6243C42.6722 18.2686 42.6722 20.7314 40.931 21.3757L34.0891 23.9074C33.5416 24.11 33.11 24.5416 32.9074 25.0891L30.3757 31.931C29.7314 33.6722 27.2686 33.6722 26.6243 31.931L24.0926 25.0891C23.89 24.5416 23.4584 24.11 22.9109 23.9074L16.069 21.3757C14.3278 20.7314 14.3278 18.2686 16.069 17.6243L22.9109 15.0926C23.4584 14.89 23.89 14.4584 24.0926 13.9109L26.6243 7.06901Z" fill="url(#paint16_linear_2027_2759)"/>
<path d="M111.124 56.069C111.769 54.3278 114.231 54.3278 114.876 56.069L117.813 64.0058C118.015 64.5532 118.447 64.9849 118.994 65.1874L126.931 68.1243C128.672 68.7686 128.672 71.2314 126.931 71.8757L118.994 74.8126C118.447 75.0151 118.015 75.4468 117.813 75.9942L114.876 83.931C114.231 85.6722 111.769 85.6722 111.124 83.931L108.187 75.9942C107.985 75.4468 107.553 75.0151 107.006 74.8126L99.069 71.8757C97.3278 71.2314 97.3278 68.7686 99.069 68.1243L107.006 65.1874C107.553 64.9849 107.985 64.5532 108.187 64.0058L111.124 56.069Z" fill="url(#paint17_linear_2027_2759)"/>
<path d="M27.6243 66.069C28.2686 64.3278 30.7314 64.3278 31.3757 66.069L35.528 77.2904C35.7306 77.8378 36.1622 78.2694 36.7096 78.472L47.931 82.6243C49.6722 83.2686 49.6722 85.7314 47.931 86.3757L36.7096 90.528C36.1622 90.7306 35.7306 91.1622 35.528 91.7096L31.3757 102.931C30.7314 104.672 28.2686 104.672 27.6243 102.931L23.472 91.7096C23.2694 91.1622 22.8378 90.7306 22.2904 90.528L11.069 86.3757C9.32777 85.7314 9.32777 83.2686 11.069 82.6243L22.2904 78.472C22.8378 78.2694 23.2694 77.8378 23.472 77.2904L27.6243 66.069Z" fill="url(#paint18_linear_2027_2759)"/>
<defs>
<filter id="filter0_d_2027_2759" x="13.9688" y="41.624" width="105.564" height="43.7559" filterUnits="userSpaceOnUse" color-interpolation-filters="sRGB">
<feFlood flood-opacity="0" result="BackgroundImageFix"/>
<feColorMatrix in="SourceAlpha" type="matrix" values="0 0 0 0 0 0 0 0 0 0 0 0 0 0 0 0 0 0 127 0" result="hardAlpha"/>
<feOffset dx="-0.25" dy="-0.25"/>
<feGaussianBlur stdDeviation="0.25"/>
<feComposite in2="hardAlpha" operator="out"/>
<feColorMatrix type="matrix" values="0 0 0 0 0.470588 0 0 0 0 0.372549 0 0 0 0 0.658824 0 0 0 1 0"/>
<feBlend mode="normal" in2="BackgroundImageFix" result="effect1_dropShadow_2027_2759"/>
<feBlend mode="normal" in="SourceGraphic" in2="effect1_dropShadow_2027_2759" result="shape"/>
</filter>
<filter id="filter1_dd_2027_2759" x="0" y="0" width="132.75" height="73.3672" filterUnits="userSpaceOnUse" color-interpolation-filters="sRGB">
<feFlood flood-opacity="0" result="BackgroundImageFix"/>
<feColorMatrix in="SourceAlpha" type="matrix" values="0 0 0 0 0 0 0 0 0 0 0 0 0 0 0 0 0 0 127 0" result="hardAlpha"/>
<feOffset dy="-1.25"/>
<feGaussianBlur stdDeviation="0.375"/>
<feComposite in2="hardAlpha" operator="out"/>
<feColorMatrix type="matrix" values="0 0 0 0 0.133333 0 0 0 0 0.0980392 0 0 0 0 0.176471 0 0 0 1 0"/>
<feBlend mode="normal" in2="BackgroundImageFix" result="effect1_dropShadow_2027_2759"/>
<feColorMatrix in="SourceAlpha" type="matrix" values="0 0 0 0 0 0 0 0 0 0 0 0 0 0 0 0 0 0 127 0" result="hardAlpha"/>
<feOffset dx="-1" dy="-0.5"/>
<feGaussianBlur stdDeviation="0.5"/>
<feComposite in2="hardAlpha" operator="out"/>
<feColorMatrix type="matrix" values="0 0 0 0 0.372549 0 0 0 0 0.254902 0 0 0 0 0.501961 0 0 0 1 0"/>
<feBlend mode="normal" in2="effect1_dropShadow_2027_2759" result="effect2_dropShadow_2027_2759"/>
<feBlend mode="normal" in="SourceGraphic" in2="effect2_dropShadow_2027_2759" result="shape"/>
</filter>
<filter id="filter2_f_2027_2759" x="68.6753" y="35.2461" width="60.0894" height="32.5049" filterUnits="userSpaceOnUse" color-interpolation-filters="sRGB">
<feFlood flood-opacity="0" result="BackgroundImageFix"/>
<feBlend mode="normal" in="SourceGraphic" in2="BackgroundImageFix" result="shape"/>
<feGaussianBlur stdDeviation="0.25" result="effect1_foregroundBlur_2027_2759"/>
</filter>
<filter id="filter3_f_2027_2759" x="61.5625" y="30.9639" width="39.9287" height="30.7334" filterUnits="userSpaceOnUse" color-interpolation-filters="sRGB">
<feFlood flood-opacity="0" result="BackgroundImageFix"/>
<feBlend mode="normal" in="SourceGraphic" in2="BackgroundImageFix" result="shape"/>
<feGaussianBlur stdDeviation="0.25" result="effect1_foregroundBlur_2027_2759"/>
</filter>
<filter id="filter4_f_2027_2759" x="64.0453" y="28.3383" width="39.7253" height="30.5344" filterUnits="userSpaceOnUse" color-interpolation-filters="sRGB">
<feFlood flood-opacity="0" result="BackgroundImageFix"/>
<feBlend mode="normal" in="SourceGraphic" in2="BackgroundImageFix" result="shape"/>
<feGaussianBlur stdDeviation="0.2" result="effect1_foregroundBlur_2027_2759"/>
</filter>
<filter id="filter5_d_2027_2759" x="64.1982" y="26.7373" width="41.2385" height="59.3889" filterUnits="userSpaceOnUse" color-interpolation-filters="sRGB">
<feFlood flood-opacity="0" result="BackgroundImageFix"/>
<feColorMatrix in="SourceAlpha" type="matrix" values="0 0 0 0 0 0 0 0 0 0 0 0 0 0 0 0 0 0 127 0" result="hardAlpha"/>
<feOffset dx="0.4" dy="0.15"/>
<feGaussianBlur stdDeviation="0.325"/>
<feComposite in2="hardAlpha" operator="out"/>
<feColorMatrix type="matrix" values="0 0 0 0 0.8 0 0 0 0 0.458824 0 0 0 0 0.227451 0 0 0 1 0"/>
<feBlend mode="normal" in2="BackgroundImageFix" result="effect1_dropShadow_2027_2759"/>
<feBlend mode="normal" in="SourceGraphic" in2="effect1_dropShadow_2027_2759" result="shape"/>
</filter>
<linearGradient id="paint0_linear_2027_2759" x1="114.16" y1="63.7517" x2="20.4977" y2="63.7517" gradientUnits="userSpaceOnUse">
<stop stop-color="#68518B"/>
<stop offset="0.444" stop-color="#503678"/>
<stop offset="0.909" stop-color="#35254E"/>
</linearGradient>
<linearGradient id="paint1_linear_2027_2759" x1="124.66" y1="37.4365" x2="26.6421" y2="37.4365" gradientUnits="userSpaceOnUse">
<stop stop-color="#655676"/>
<stop offset="1" stop-color="#2D2635"/>
</linearGradient>
<linearGradient id="paint2_linear_2027_2759" x1="75.8148" y1="66.9009" x2="132.823" y2="34.0789" gradientUnits="userSpaceOnUse">
<stop stop-color="#6E5F85"/>
<stop offset="1" stop-color="#9A8DA7"/>
</linearGradient>
<linearGradient id="paint3_linear_2027_2759" x1="74.3209" y1="38.6232" x2="104.3" y2="63.212" gradientUnits="userSpaceOnUse">
<stop stop-color="#3C2D42"/>
<stop offset="1" stop-color="#3D2C43" stop-opacity="0"/>
</linearGradient>
<linearGradient id="paint4_linear_2027_2759" x1="72.4103" y1="36.1704" x2="95.9813" y2="57.0679" gradientUnits="userSpaceOnUse">
<stop stop-color="#2C1A20"/>
<stop offset="1" stop-color="#4C2350"/>
</linearGradient>
<linearGradient id="paint5_linear_2027_2759" x1="73.4733" y1="29.5271" x2="102.047" y2="85.3826" gradientUnits="userSpaceOnUse">
<stop stop-color="#D3A543"/>
<stop offset="1" stop-color="#FFBA62"/>
</linearGradient>
<radialGradient id="paint6_radial_2027_2759" cx="0" cy="0" r="1" gradientUnits="userSpaceOnUse" gradientTransform="translate(66.0833 25.7897) rotate(26.9025) scale(18.231 11.3487)">
<stop stop-color="#D0A745"/>
<stop offset="1" stop-color="#D0A745" stop-opacity="0"/>
</radialGradient>
<linearGradient id="paint7_linear_2027_2759" x1="106.307" y1="62.0048" x2="100.701" y2="62.4226" gradientUnits="userSpaceOnUse">
<stop stop-color="#FFD574"/>
<stop offset="1" stop-color="#FFD574" stop-opacity="0"/>
</linearGradient>
<linearGradient id="paint8_linear_2027_2759" x1="96.0787" y1="39.1415" x2="93.914" y2="43.2709" gradientUnits="userSpaceOnUse">
<stop stop-color="#FFD574"/>
<stop offset="1" stop-color="#FFD574" stop-opacity="0"/>
</linearGradient>
<radialGradient id="paint9_radial_2027_2759" cx="0" cy="0" r="1" gradientUnits="userSpaceOnUse" gradientTransform="translate(105.753 86.1862) rotate(137.407) scale(9.70945 10.4543)">
<stop stop-color="#FFCC6C"/>
<stop offset="1" stop-color="#F49041"/>
</radialGradient>
<radialGradient id="paint10_radial_2027_2759" cx="0" cy="0" r="1" gradientUnits="userSpaceOnUse" gradientTransform="translate(107.089 90.3852) rotate(-157.498) scale(17.4393 14.0027)">
<stop offset="0.6" stop-color="#B25D41" stop-opacity="0"/>
<stop offset="0.911" stop-color="#B25D41"/>
</radialGradient>
<radialGradient id="paint11_radial_2027_2759" cx="0" cy="0" r="1" gradientUnits="userSpaceOnUse" gradientTransform="translate(94.9361 94.0571) rotate(-8.83679) scale(10.6398 5.16007)">
<stop stop-color="#FD805E"/>
<stop offset="1" stop-color="#FD805E" stop-opacity="0"/>
</radialGradient>
<linearGradient id="paint12_linear_2027_2759" x1="92.6179" y1="105.844" x2="99.7166" y2="107.004" gradientUnits="userSpaceOnUse">
<stop stop-color="#D17047"/>
<stop offset="1" stop-color="#D17047" stop-opacity="0"/>
</linearGradient>
<radialGradient id="paint13_radial_2027_2759" cx="0" cy="0" r="1" gradientUnits="userSpaceOnUse" gradientTransform="translate(105.45 92.4271) rotate(90) scale(20.431 6.28081)">
<stop offset="0.567" stop-color="#FFBC6E"/>
<stop offset="1" stop-color="#FFBC6E" stop-opacity="0"/>
</radialGradient>
<radialGradient id="paint14_radial_2027_2759" cx="0" cy="0" r="1" gradientUnits="userSpaceOnUse" gradientTransform="translate(97.5351 117.995) rotate(-77.3367) scale(12.4567 14.4156)">
<stop offset="0.165" stop-color="#FF697E"/>
<stop offset="1" stop-color="#FF697E" stop-opacity="0"/>
</radialGradient>
<linearGradient id="paint15_linear_2027_2759" x1="107" y1="26.5" x2="128" y2="26.5" gradientUnits="userSpaceOnUse">
<stop stop-color="#2CD8D5"/>
<stop offset="0.56" stop-color="#C5C1FF"/>
<stop offset="1" stop-color="#FFBAC3"/>
</linearGradient>
<linearGradient id="paint16_linear_2027_2759" x1="11" y1="19.5" x2="46" y2="19.5" gradientUnits="userSpaceOnUse">
<stop stop-color="#E14FAD"/>
<stop offset="1" stop-color="#F9D423"/>
</linearGradient>
<linearGradient id="paint17_linear_2027_2759" x1="94" y1="70" x2="132" y2="70" gradientUnits="userSpaceOnUse">
<stop stop-color="#FF8177"/>
<stop stop-color="#FF867A"/>
<stop offset="0.21" stop-color="#FF8C7F"/>
<stop offset="0.52" stop-color="#F99185"/>
<stop offset="0.78" stop-color="#CF556C"/>
<stop offset="1" stop-color="#B12A5B"/>
</linearGradient>
<linearGradient id="paint18_linear_2027_2759" x1="6" y1="84.5" x2="53" y2="84.5" gradientUnits="userSpaceOnUse">
<stop stop-color="#209CFF"/>
<stop offset="1" stop-color="#68E0CF"/>
</linearGradient>
</defs>
</svg>
