<svg width="100" height="100" viewBox="0 0 100 100" fill="none" xmlns="http://www.w3.org/2000/svg">
<path d="M16.332 64.7093L15.2846 65.9366L12.3342 64.7093L13.1978 63.418L16.332 64.7093Z" fill="#1D5092"/>
<path d="M17.6836 58.8685C17.6836 59.1721 17.7736 59.4689 17.9423 59.7214C18.111 59.9738 18.3508 60.1706 18.6313 60.2868C18.9118 60.403 19.2204 60.4334 19.5182 60.3741C19.816 60.3149 20.0896 60.1687 20.3043 59.954C20.519 59.7393 20.6652 59.4658 20.7244 59.168C20.7836 58.8702 20.7532 58.5615 20.637 58.281C20.5209 58.0005 20.3241 57.7607 20.0716 57.592C19.8192 57.4233 19.5224 57.3333 19.2187 57.3333C18.8119 57.3344 18.4221 57.4964 18.1344 57.7841C17.8467 58.0718 17.6846 58.4616 17.6836 58.8685Z" fill="#EA4552"/>
<path d="M52.0703 81.7679C52.0711 81.9201 52.1171 82.0686 52.2025 82.1945C52.2879 82.3205 52.4087 82.4182 52.5498 82.4753C52.6908 82.5324 52.8456 82.5463 52.9945 82.5153C53.1435 82.4842 53.2799 82.4096 53.3863 82.3009C53.4928 82.1922 53.5645 82.0543 53.5924 81.9047C53.6204 81.7552 53.6032 81.6007 53.5431 81.4609C53.4831 81.3211 53.3828 81.2023 53.2551 81.1196C53.1274 81.0369 52.978 80.994 52.8259 80.9964C52.6237 80.9995 52.431 81.0823 52.2895 81.2268C52.148 81.3713 52.0692 81.5657 52.0703 81.7679Z" fill="#EA4552"/>
<path d="M87.8326 70.2303C87.8327 70.3461 87.8671 70.4592 87.9316 70.5554C87.9961 70.6515 88.0877 70.7263 88.1948 70.7703C88.302 70.8142 88.4197 70.8253 88.5332 70.8021C88.6466 70.7789 88.7506 70.7225 88.8319 70.6401C88.9132 70.5577 88.9681 70.4529 88.9897 70.3392C89.0114 70.2254 88.9986 70.1078 88.9532 70.0013C88.9078 69.8948 88.8318 69.8042 88.7347 69.7411C88.6377 69.6779 88.5241 69.645 88.4083 69.6466C88.2549 69.6487 88.1085 69.7111 88.0008 69.8204C87.893 69.9296 87.8326 70.0769 87.8326 70.2303Z" fill="#EA4552"/>
<path d="M90 63.8058L88.2809 63.9097L87.4654 60.5276L89.0725 60.5955L90 63.8058Z" fill="#1D5092"/>
<path d="M36.2695 90.8029L35.6899 92.4261L32.2597 91.8504L32.9514 90.3992L36.2695 90.8029Z" fill="#EA4552"/>
<path d="M70.964 81.4362L72.0234 82.7954L69.7007 85.382L68.8452 84.0187L70.964 81.4362Z" fill="#1D5092"/>
<circle opacity="0.3" cx="25.5" cy="75.5" r="19.5" fill="#CD2935"/>
<circle opacity="0.3" cx="70.5" cy="24.5" r="19.5" fill="#1D5092"/>
<path d="M60.1616 12.2034L20.1164 26.1022C18.7318 26.5828 18.0024 28.0848 18.4873 29.457L38.5793 86.3199C39.0641 87.6922 40.5796 88.415 41.9642 87.9345L82.0094 74.0357C83.394 73.5551 84.1234 72.0531 83.6385 70.6809L63.5465 13.818C63.0617 12.4457 61.5462 11.7229 60.1616 12.2034Z" fill="url(#paint0_linear_1972_10841)"/>
<path d="M60.6779 15.7378L21.9414 29.1824L41.8553 85.5413L80.5918 72.0967L60.6779 15.7378Z" fill="#A1A1A1"/>
<path d="M59.9826 15.4727L21.2461 28.9173L40.7803 84.2018L79.5168 70.7572L59.9826 15.4727Z" fill="#FAFAFA"/>
<path d="M79.5082 70.7563L59.9243 15.4913L59.9953 15.5244L21.266 28.9733L21.3036 28.8988C28.6043 49.6619 35.3995 68.8397 40.8249 84.1844L40.7622 84.1555L79.5124 70.7563L40.7915 84.2548H40.7455V84.2093C35.316 68.8646 28.5416 49.6868 21.1992 28.9278V28.8698H21.2535L59.987 15.4333H60.0413V15.483L79.5082 70.7563Z" fill="#A1A1A1"/>
<path d="M65.7734 75.5248C65.7734 75.5248 74.398 68.314 75.8932 60.8051C75.0278 61.9954 73.9281 62.9996 72.6605 63.7573C71.3928 64.5149 69.9835 65.0103 68.5174 65.2136C68.5174 65.2136 68.3462 73.0784 65.7734 75.5248Z" fill="#A1A1A1"/>
<path d="M34.4837 41.236L32.4458 41.9433C31.7012 42.2017 31.309 43.0094 31.5698 43.7473L32.2834 45.7671C32.5442 46.505 33.3591 46.8937 34.1036 46.6353L36.1416 45.928C36.8861 45.6696 37.2783 44.8619 37.0176 44.124L36.3039 42.1042C36.0432 41.3663 35.2282 40.9776 34.4837 41.236Z" fill="#1D5092"/>
<path d="M34.2336 44.7154C34.2194 44.7226 34.2036 44.7264 34.1876 44.7264C34.1716 44.7264 34.1559 44.7226 34.1417 44.7154L33.2061 44.1773C33.1835 44.1601 33.1679 44.1354 33.1624 44.1076C33.1568 44.0799 33.1617 44.0512 33.1761 44.0268C33.1905 44.0023 33.2133 43.984 33.2404 43.9751C33.2675 43.9662 33.2969 43.9675 33.3231 43.9786L34.1584 44.4505L35.1441 42.3808C35.1584 42.3532 35.1827 42.332 35.2121 42.3213C35.2414 42.3105 35.2738 42.3111 35.3028 42.3228C35.3169 42.3294 35.3296 42.3388 35.34 42.3504C35.3504 42.3619 35.3584 42.3754 35.3635 42.3901C35.3685 42.4048 35.3706 42.4203 35.3695 42.4358C35.3684 42.4512 35.3641 42.4663 35.3571 42.4801L34.3171 44.6823C34.3064 44.6934 34.2934 44.7021 34.279 44.7078C34.2645 44.7135 34.2491 44.7161 34.2336 44.7154Z" fill="white"/>
<path d="M60.9802 32.678C60.9802 32.7111 55.9683 34.4869 49.7494 36.6436C43.5305 38.8002 38.4727 40.5222 38.4727 40.4932C38.4727 40.4642 43.4845 38.6843 49.7076 36.5277C55.9307 34.371 60.9718 32.6491 60.9802 32.678Z" fill="#4F4F4F"/>
<path d="M49.1709 40.6339C49.1709 40.6339 49.0414 40.6919 48.8075 40.7829L47.7968 41.1555C46.9615 41.4618 45.7586 41.8799 44.4555 42.3352C43.1524 42.7905 41.9496 43.1962 41.1143 43.4818L40.091 43.8171C39.9671 43.8621 39.8401 43.8981 39.7109 43.9247C39.8277 43.8641 39.9492 43.8129 40.0743 43.7716L41.085 43.4032C41.9203 43.0927 43.1232 42.6746 44.4263 42.2193C45.7294 41.764 46.9322 41.3624 47.7675 41.0727L48.7908 40.7374C48.9142 40.6921 49.0414 40.6575 49.1709 40.6339Z" fill="#4F4F4F"/>
<path d="M61.5117 34.2013C61.5117 34.2303 56.4998 36.0061 50.2767 38.1627C44.0536 40.3193 39 42.0455 39 42.0124C39 41.9792 44.0119 40.2076 50.2391 38.051C56.4664 35.8943 61.5117 34.1682 61.5117 34.2013Z" fill="#4F4F4F"/>
<path d="M37.3939 49.4725L35.3559 50.1799C34.6114 50.4383 34.2192 51.246 34.4799 51.9839L35.1936 54.0037C35.4543 54.7416 36.2693 55.1303 37.0138 54.8719L39.0517 54.1646C39.7963 53.9061 40.1885 53.0985 39.9277 52.3605L39.2141 50.3408C38.9533 49.6028 38.1384 49.2141 37.3939 49.4725Z" fill="#1D5092"/>
<path d="M37.1449 52.9527C37.1299 52.96 37.1135 52.9638 37.0968 52.9638C37.0802 52.9638 37.0638 52.96 37.0488 52.9527L36.1174 52.4146C36.1039 52.4073 36.0921 52.3973 36.0826 52.3854C36.0731 52.3734 36.0662 52.3596 36.0623 52.3449C36.0584 52.3301 36.0576 52.3148 36.0599 52.2997C36.0622 52.2846 36.0675 52.2702 36.0757 52.2573C36.083 52.2439 36.0931 52.2321 36.1051 52.2227C36.1172 52.2134 36.1312 52.2065 36.146 52.2026C36.1609 52.1987 36.1764 52.1979 36.1916 52.2002C36.2068 52.2025 36.2213 52.2078 36.2344 52.2159L37.0697 52.6878L38.0554 50.5974C38.0689 50.5701 38.0924 50.549 38.1211 50.5382C38.1498 50.5275 38.1815 50.5279 38.2099 50.5394C38.2381 50.5521 38.2601 50.5753 38.2711 50.604C38.2821 50.6327 38.2811 50.6646 38.2684 50.6926L37.2284 52.8989C37.2191 52.9132 37.2069 52.9254 37.1925 52.9347C37.1781 52.944 37.1619 52.9501 37.1449 52.9527Z" fill="white"/>
<path d="M63.8906 40.9155C63.8906 40.9486 58.8787 42.7202 52.6556 44.881C46.4325 47.0418 41.3789 48.7596 41.3789 48.7306C41.3789 48.7016 46.3908 46.9217 52.6139 44.7651C58.8369 42.6085 63.8822 40.8865 63.8906 40.9155Z" fill="#4F4F4F"/>
<path d="M52.081 48.8713C52.081 48.8713 51.9515 48.9292 51.7135 49.0203L50.7069 49.3928C49.8716 49.6992 48.6688 50.1172 47.3657 50.5726C46.0626 51.0279 44.8597 51.4336 44.0244 51.7192L43.0012 52.0545C42.8773 52.0995 42.7503 52.1355 42.6211 52.1621C42.7374 52.1004 42.859 52.0492 42.9845 52.0089L43.9952 51.6405C44.8305 51.3301 46.0333 50.912 47.3364 50.4567C48.6395 50.0013 49.8424 49.5998 50.6777 49.3101L51.7009 48.9748C51.8244 48.9295 51.9516 48.8949 52.081 48.8713Z" fill="#4F4F4F"/>
<path d="M64.4336 42.447C64.4336 42.4759 59.4217 44.2517 53.1986 46.4084C46.9755 48.565 41.9219 50.2911 41.9219 50.258C41.9219 50.2249 46.9338 48.4532 53.1568 46.2966C59.3799 44.14 64.4336 42.4056 64.4336 42.447Z" fill="#4F4F4F"/>
<path d="M40.3079 57.7091L38.27 58.4164C37.5254 58.6748 37.1332 59.4825 37.394 60.2204L38.1077 62.2402C38.3684 62.9781 39.1833 63.3668 39.9279 63.1084L41.9658 62.4011C42.7103 62.1427 43.1025 61.335 42.8418 60.5971L42.1281 58.5773C41.8674 57.8393 41.0525 57.4506 40.3079 57.7091Z" fill="#1D5092"/>
<path d="M40.0596 61.19C40.0447 61.1973 40.0282 61.2011 40.0116 61.2011C39.9949 61.2011 39.9785 61.1973 39.9636 61.19L39.028 60.6602C39.0128 60.6537 38.9991 60.6441 38.9879 60.632C38.9766 60.6199 38.9681 60.6056 38.9629 60.59C38.9577 60.5744 38.9559 60.5579 38.9577 60.5415C38.9594 60.5252 38.9646 60.5094 38.973 60.4952C38.9813 60.481 38.9926 60.4688 39.0061 60.4592C39.0196 60.4497 39.035 60.4431 39.0513 60.4399C39.0675 60.4367 39.0843 60.437 39.1005 60.4407C39.1166 60.4444 39.1318 60.4515 39.1449 60.4615L39.9803 60.9334L40.9659 58.843C40.9718 58.8285 40.9805 58.8153 40.9917 58.8042C41.0028 58.7931 41.0161 58.7844 41.0308 58.7785C41.0454 58.7726 41.0611 58.7698 41.0769 58.7701C41.0927 58.7704 41.1082 58.7739 41.1226 58.7803C41.137 58.7868 41.1499 58.796 41.1606 58.8075C41.1713 58.8191 41.1795 58.8326 41.1848 58.8473C41.19 58.8621 41.1922 58.8778 41.1912 58.8934C41.1902 58.909 41.186 58.9242 41.1789 58.9382L40.139 61.1445C40.1185 61.1682 40.0905 61.1843 40.0596 61.19Z" fill="white"/>
<path d="M66.8046 49.1528C66.8046 49.1859 61.7928 50.9575 55.5697 53.1183C49.3466 55.2791 44.293 56.9969 44.293 56.9638C44.293 56.9307 49.3048 55.159 55.5321 53.0024C61.7594 50.8458 66.7921 49.1238 66.8046 49.1528Z" fill="#4F4F4F"/>
<path d="M54.9914 57.1046C54.8729 57.1645 54.7501 57.2157 54.6239 57.2577L53.6132 57.6303C52.7779 57.9366 51.5792 58.3546 50.2719 58.81C48.9647 59.2653 47.766 59.6668 46.9307 59.9566L45.9074 60.2919C45.7833 60.3363 45.6564 60.3723 45.5273 60.3995C45.6436 60.3379 45.7652 60.2866 45.8907 60.2463L46.9014 59.8738C47.7367 59.5675 48.9396 59.1494 50.2427 58.6941C51.5458 58.2387 52.7486 57.8372 53.5839 57.5475L54.603 57.2122C54.7303 57.1691 54.86 57.1331 54.9914 57.1046Z" fill="#4F4F4F"/>
<path d="M67.3593 50.6761C67.3593 50.705 62.3475 52.4808 56.1244 54.6375C49.9013 56.7941 44.8477 58.5202 44.8477 58.4871C44.8477 58.454 49.8595 56.6823 56.0826 54.5216C62.3057 52.3608 67.3301 50.643 67.3593 50.6761Z" fill="#4F4F4F"/>
<path d="M43.2142 65.9456L41.1762 66.6529C40.4317 66.9113 40.0395 67.719 40.3002 68.4569L41.0139 70.4767C41.2746 71.2146 42.0896 71.6033 42.8341 71.3449L44.872 70.6376C45.6166 70.3792 46.0088 69.5715 45.7481 68.8336L45.0344 66.8138C44.7736 66.0759 43.9587 65.6872 43.2142 65.9456Z" fill="#1D5092"/>
<path d="M42.9629 69.4275C42.9484 69.4336 42.9327 69.4368 42.917 69.4368C42.9012 69.4368 42.8855 69.4336 42.871 69.4275L41.9355 68.8894C41.9089 68.8735 41.8898 68.8477 41.8823 68.8178C41.8749 68.7879 41.8797 68.7564 41.8958 68.73C41.9118 68.7037 41.9378 68.6847 41.968 68.6773C41.9981 68.67 42.03 68.6748 42.0566 68.6907L42.8919 69.1626L43.8776 67.0929C43.8903 67.0649 43.9138 67.0431 43.9427 67.0322C43.9717 67.0214 44.0038 67.0223 44.0321 67.0349C44.0596 67.0484 44.0809 67.0717 44.0918 67.1001C44.1026 67.1285 44.1022 67.16 44.0906 67.1881L43.0464 69.3944C43.0239 69.4156 42.994 69.4275 42.9629 69.4275Z" fill="white"/>
<path d="M69.7148 57.3902C69.7148 57.4233 64.7029 59.195 58.4798 61.3516C52.2568 63.5082 47.2031 65.2343 47.2031 65.2012C47.2031 65.1681 52.215 63.3964 58.4381 61.2398C64.6612 59.0832 69.7023 57.3488 69.7148 57.3902Z" fill="#4F4F4F"/>
<path d="M57.9013 65.3419C57.785 65.4036 57.6634 65.4548 57.538 65.4951L56.5272 65.8676C55.6919 66.1739 54.4891 66.592 53.186 67.0473C51.8829 67.5027 50.68 67.9042 49.8447 68.194L48.8215 68.5293C48.5792 68.6038 48.4414 68.641 48.4414 68.6369C48.5577 68.5752 48.6793 68.524 48.8048 68.4837L49.8155 68.1112C50.6508 67.8049 51.8537 67.3868 53.1567 66.9314C54.4598 66.4761 55.6627 66.0746 56.498 65.7848L57.5213 65.4495C57.6453 65.4051 57.7723 65.3692 57.9013 65.3419Z" fill="#4F4F4F"/>
<path d="M70.2539 58.9134C70.2539 58.9424 65.242 60.7182 59.0189 62.8748C52.7958 65.0315 47.7422 66.7534 47.7422 66.7245C47.7422 66.6955 52.7541 64.9197 58.9771 62.7589C65.2002 60.5982 70.2413 58.8803 70.2539 58.9134Z" fill="#4F4F4F"/>
<path d="M25.6328 23.5299L26.6519 26.4275C26.9369 27.2341 27.5334 27.8957 28.3103 28.2667C29.0872 28.6377 29.9809 28.6878 30.795 28.4061L52.2208 20.9552C52.6236 20.8158 52.9947 20.5991 53.3129 20.3174C53.6311 20.0357 53.8902 19.6946 54.0752 19.3136C54.2603 18.9326 54.3677 18.5191 54.3913 18.0969C54.415 17.6747 54.3544 17.252 54.213 16.8531L53.194 13.9555L25.6328 23.5299Z" fill="#1D5092"/>
<path d="M39.6975 19.6058C39.1284 19.8043 38.5126 19.8309 37.9281 19.6823C37.3437 19.5338 36.8168 19.2167 36.4143 18.7712C36.0118 18.3257 35.7517 17.7719 35.6669 17.1798C35.5822 16.5877 35.6766 15.984 35.9382 15.4452C36.1998 14.9063 36.6169 14.4565 37.1366 14.1526C37.6563 13.8488 38.2552 13.7047 38.8577 13.7384C39.4601 13.7721 40.0388 13.9823 40.5207 14.3422C41.0025 14.7021 41.3658 15.1957 41.5645 15.7603C41.8303 16.5157 41.783 17.3447 41.433 18.0655C41.083 18.7864 40.4589 19.3403 39.6975 19.6058ZM38.0687 14.9987C37.7176 15.1201 37.4108 15.3421 37.1871 15.6364C36.9634 15.9307 36.8327 16.2842 36.8117 16.6521C36.7907 17.02 36.8803 17.3859 37.0692 17.7033C37.258 18.0208 37.5376 18.2756 37.8726 18.4355C38.2076 18.5954 38.5829 18.6532 38.9511 18.6017C39.3192 18.5502 39.6637 18.3916 39.9409 18.1459C40.2181 17.9003 40.4155 17.5787 40.5083 17.2219C40.601 16.865 40.5848 16.4889 40.4619 16.1411C40.2971 15.6753 39.9525 15.2933 39.5038 15.0791C39.0551 14.8649 38.5389 14.836 38.0687 14.9987Z" fill="#EA4552"/>
<path d="M56.8215 27.1312C56.8215 27.185 51.1915 29.2009 44.2041 31.6224C37.2167 34.044 31.5366 35.9688 31.5157 35.915C31.4948 35.8612 37.1457 33.8453 44.1331 31.4237C51.1205 29.0022 56.8006 27.0608 56.8215 27.1312Z" fill="#4F4F4F"/>
<path d="M49.5829 28.1453C49.5829 28.1991 47.1187 29.1139 44.0322 30.186C40.9457 31.2582 38.4273 32.0984 38.4064 32.0239C38.3855 31.9494 40.8747 31.0553 43.9612 29.9832C47.0477 28.9111 49.5662 28.0915 49.5829 28.1453Z" fill="#4F4F4F"/>
<path d="M88.6523 33.594L89.8085 32.2393L93.0652 33.594L92.112 35.0193L88.6523 33.594Z" fill="#1D5092"/>
<path d="M87.1586 40.0411C87.1586 39.706 87.0592 39.3784 86.873 39.0997C86.6868 38.821 86.4221 38.6039 86.1125 38.4756C85.8029 38.3473 85.4622 38.3138 85.1335 38.3792C84.8048 38.4446 84.5028 38.6059 84.2658 38.8429C84.0289 39.0799 83.8675 39.3818 83.8021 39.7106C83.7367 40.0393 83.7703 40.38 83.8985 40.6896C84.0268 40.9992 84.244 41.2639 84.5226 41.4501C84.8013 41.6363 85.1289 41.7357 85.4641 41.7357C85.9131 41.7345 86.3434 41.5556 86.661 41.2381C86.9785 40.9205 87.1574 40.4902 87.1586 40.0411Z" fill="#EA4552"/>
<path d="M49.1984 14.7646C49.1975 14.5966 49.1467 14.4327 49.0525 14.2937C48.9583 14.1547 48.8249 14.0468 48.6692 13.9838C48.5135 13.9207 48.3427 13.9054 48.1782 13.9396C48.0138 13.9739 47.8633 14.0563 47.7458 14.1763C47.6283 14.2963 47.5491 14.4485 47.5183 14.6136C47.4875 14.7786 47.5064 14.9492 47.5727 15.1035C47.639 15.2578 47.7496 15.3889 47.8906 15.4802C48.0316 15.5715 48.1965 15.6189 48.3644 15.6162C48.5876 15.6127 48.8003 15.5213 48.9565 15.3619C49.1127 15.2024 49.1996 14.9878 49.1984 14.7646Z" fill="#EA4552"/>
<path d="M9.72604 27.4999C9.72603 27.3721 9.68801 27.2472 9.61682 27.1411C9.54563 27.0349 9.44448 26.9524 9.32624 26.9039C9.208 26.8554 9.07801 26.8431 8.9528 26.8687C8.82759 26.8943 8.71282 26.9566 8.62308 27.0475C8.53333 27.1385 8.47268 27.2541 8.44882 27.3797C8.42497 27.5053 8.439 27.6351 8.48911 27.7526C8.53923 27.8702 8.62318 27.9702 8.73029 28.0399C8.83739 28.1096 8.96281 28.1459 9.0906 28.1442C9.25993 28.1418 9.42155 28.0729 9.54047 27.9524C9.65939 27.8318 9.72606 27.6692 9.72604 27.4999Z" fill="#EA4552"/>
<path d="M7.33594 34.5913L9.23345 34.4765L10.1337 38.2098L8.35971 38.1348L7.33594 34.5913Z" fill="#1D5092"/>
<path d="M66.6445 4.79161L67.2844 3.00001L71.0706 3.63546L70.3072 5.2373L66.6445 4.79161Z" fill="#EA4552"/>
<path d="M28.3491 15.1308L27.1797 13.6304L29.7435 10.7754L30.6879 12.2801L28.3491 15.1308Z" fill="#1D5092"/>
<defs>
<linearGradient id="paint0_linear_1972_10841" x1="40.139" y1="19.1528" x2="61.6412" y2="81.105" gradientUnits="userSpaceOnUse">
<stop offset="0.354055" stopColor="#B82E32"/>
<stop offset="1" stopColor="#EA4552"/>
</linearGradient>
</defs>
</svg>
