<svg width="108" height="32" viewBox="0 0 108 32" fill="none" xmlns="http://www.w3.org/2000/svg">
<path d="M82.3698 18.8168C82.5334 18.8168 82.697 18.8168 82.7788 18.8168C84.6329 18.8168 86.4597 18.8168 88.2592 18.8168C88.3683 18.8168 88.4501 18.8168 88.5046 18.8168C88.75 18.8168 88.75 18.735 88.6682 18.4896C88.4501 17.7262 88.0411 17.0718 87.4413 16.5265C86.0507 15.2995 84.4966 15.0541 82.8606 15.8721C81.6337 16.4447 80.8157 17.5081 80.4885 18.8168C80.1613 20.0438 80.1613 21.2707 80.7339 22.4159C81.3883 23.8882 82.4516 25.0334 84.1694 25.2788C84.9056 25.3606 85.7235 25.2788 86.4597 24.9516C86.8687 24.788 87.1959 24.4608 87.523 24.1336C87.8502 23.8064 87.7684 23.8064 88.1774 23.97C89.2135 24.4608 90.2769 24.9516 91.3675 25.4424C91.4766 25.4969 91.6129 25.5787 91.7765 25.6878C91.722 25.7968 91.6402 25.9332 91.5311 26.0968C90.6041 27.351 89.4316 28.278 88.0138 28.8779C86.2143 29.614 84.4148 29.7776 82.5334 29.2869C80.4885 28.7961 78.689 27.5691 77.462 25.6878C76.7531 24.5971 76.2623 23.4247 75.9897 22.1705C75.6625 20.5345 75.7715 18.9259 76.3168 17.3445C77.0257 15.1632 78.3618 13.5 80.3249 12.3548C81.5246 11.5914 82.8333 11.1824 84.2512 11.1279C85.6417 11.1279 87.0323 11.3733 88.2592 11.9458C89.7316 12.682 90.9585 13.7454 91.9401 15.2177C92.3491 15.9539 92.7581 16.6901 93.0035 17.5081C93.3307 18.5714 93.4942 19.6348 93.4125 20.6982C93.4125 21.1889 93.3852 21.6525 93.3306 22.0887C93.2761 22.3614 93.1398 22.4977 92.9217 22.4977C90.1951 22.4977 87.4958 22.4977 84.8237 22.4977C84.6602 22.4977 84.4966 22.4159 84.4148 22.2523C83.8149 21.2707 83.2423 20.3164 82.697 19.3894C82.6152 19.2258 82.5334 19.0622 82.3698 18.8168Z" fill="#FEFEFE"/>
<path d="M57.5853 29.6959C56.6855 29.6959 55.704 29.5323 54.8042 29.2869C53.2228 28.8507 51.7777 28.1418 50.4689 27.1602C50.3054 26.9966 50.3054 26.9148 50.3872 26.6694C51.0961 25.5788 51.805 24.4609 52.5139 23.3157C52.5957 23.1521 52.6775 23.0703 52.7593 23.2339C53.5227 24.0519 54.3952 24.6518 55.3768 25.0335C56.3583 25.4425 57.4217 25.4425 58.4851 25.3607C58.8123 25.2789 59.1395 25.1971 59.3849 24.8699C59.8756 24.3791 59.8756 23.4793 58.9759 23.1521C58.1579 22.825 57.2581 22.4978 56.4401 22.2524C55.6222 21.9252 54.7224 21.6798 53.9044 21.3526C52.9229 20.8618 52.0231 20.1256 51.5323 19.0623C51.3687 18.5715 51.2051 18.0807 51.2051 17.5899C50.9598 15.3814 51.6959 13.5819 53.4955 12.3549C54.3134 11.7823 55.295 11.4551 56.2765 11.3733C58.2397 11.1279 60.2028 11.4551 62.0023 12.2731C62.5749 12.5185 62.9839 12.8457 63.4747 13.0911C63.8019 13.2547 63.8019 13.3365 63.6383 13.6637C63.3656 14.209 63.0657 14.7816 62.7385 15.3814C62.4659 15.9267 62.166 16.4993 61.8388 17.0991C61.6752 17.3445 61.6752 17.3445 61.4298 17.1809C60.6664 16.472 59.7938 15.9813 58.8123 15.7086C58.1579 15.545 57.5035 15.545 56.8491 15.545C56.2765 15.6268 55.7858 15.954 55.6222 16.4448C55.5131 16.772 55.5676 17.0446 55.7858 17.2627C56.0039 17.4809 56.222 17.6445 56.4401 17.7535C57.2581 18.2443 58.0761 18.4897 58.894 18.7351C59.9574 19.1441 61.0208 19.4713 62.0023 20.0438C62.9021 20.6164 63.7201 21.4344 63.9655 22.5796C64.5381 25.0335 63.7201 27.8146 61.1844 28.9597C60.0392 29.4505 59.1395 29.6959 57.5853 29.6959Z" fill="#FEFEFE"/>
<path d="M70.8365 13.9909C70.8365 17.0174 70.8365 19.9621 70.8365 22.9886C70.8365 24.052 71.6544 25.0335 72.636 25.0335C73.6176 25.0881 74.5992 25.1153 75.5807 25.1153C75.9897 25.1153 75.9897 25.1153 75.9897 25.6061C75.9897 26.6968 75.9897 27.7874 75.9897 28.878C75.9897 29.287 75.9897 29.287 75.5807 29.287C74.7627 29.287 73.9448 29.287 73.1268 29.287C72.1452 29.287 71.1637 29.1234 70.2639 28.7144C68.737 28.06 67.6191 26.9421 66.9102 25.3607C66.4739 24.4337 66.2831 23.4794 66.3376 22.4978C66.3376 20.8619 66.3376 19.2532 66.3376 17.6718C66.3376 17.2628 66.3376 17.2628 65.8468 17.2628C65.3015 17.2628 64.7562 17.2628 64.2109 17.2628C63.8837 17.2628 63.8837 17.181 63.8837 16.9356C63.8837 15.845 63.8837 14.7544 63.8837 13.6637C63.8837 13.3365 63.8837 13.3365 64.2109 13.3365C64.7017 13.3365 65.1652 13.3365 65.6014 13.3365C66.4194 13.3365 66.3376 13.4183 66.3376 12.6004C66.3376 10.0919 66.3376 7.58347 66.3376 5.07502C66.3376 4.96596 66.3376 4.8569 66.3376 4.74784C66.3376 4.58424 66.4194 4.50244 66.583 4.50244C67.9463 4.50244 69.2823 4.50244 70.5911 4.50244C70.7547 4.50244 70.8365 4.58424 70.8365 4.74784C70.8365 4.8569 70.8365 4.96596 70.8365 5.07502C70.8365 8.07425 70.8365 11.0462 70.8365 13.9909Z" fill="#FEFEFE"/>
<path d="M98.6475 13.5818C98.7293 13.5 98.8111 13.4182 98.8929 13.4182C99.8199 12.2185 101.02 11.5096 102.492 11.2915C103.719 11.0461 104.946 11.1279 106.091 11.4551C106.664 11.6187 107.154 11.8641 107.645 12.1095C107.809 12.1095 107.891 12.1912 107.727 12.3548C107.127 13.5 106.5 14.6724 105.846 15.8721C105.764 16.0357 105.682 16.1175 105.437 15.9539C104.237 15.2995 102.983 15.2177 101.674 15.7085C100.447 16.1175 99.629 16.9355 99.0565 18.0806C98.8111 18.5714 98.6475 19.144 98.6475 19.7984C98.6475 22.7976 98.6475 25.7969 98.6475 28.7961C98.6475 29.2869 98.6475 29.2869 98.2385 29.2869C96.9297 29.2869 95.621 29.2869 94.3122 29.2869C93.985 29.2869 93.985 29.2869 93.985 28.8779C93.985 23.2066 93.985 17.5353 93.985 11.8641C93.985 11.4551 93.985 11.4551 94.3122 11.4551C95.621 11.4551 96.9297 11.4551 98.2385 11.4551C98.6475 11.4551 98.6475 11.4551 98.6475 11.8641C98.6475 12.3003 98.6475 12.7638 98.6475 13.2546C98.6475 13.3364 98.6475 13.4182 98.6475 13.5818Z" fill="#FEFEFE"/>
<path d="M50.1417 20.5346C50.1417 23.3157 50.1417 26.124 50.1417 28.9597C50.1417 29.3687 50.0599 29.3687 49.6509 29.3687C48.3967 29.3687 47.1697 29.3687 45.97 29.3687C45.6428 29.3687 45.561 29.3687 45.561 29.0415C45.561 23.3157 45.561 17.6171 45.561 11.9459C45.561 11.6187 45.6428 11.5369 45.97 11.5369C47.2242 11.5369 48.4512 11.5369 49.6509 11.5369C50.0599 11.5369 50.1417 11.5369 50.1417 11.9459C50.1417 14.836 50.1417 17.6989 50.1417 20.5346Z" fill="#FEFEFE"/>
<path d="M73.6994 13.3365C74.3537 13.3365 75.0081 13.3365 75.6625 13.3365C75.9896 13.3365 75.9897 13.3365 75.9897 13.6637C75.9897 14.7544 75.9897 15.8177 75.9897 16.8538C75.9897 17.181 75.9896 17.2628 75.6625 17.2628C75.0081 17.2628 74.381 17.2628 73.7811 17.2628C73.6175 17.2628 73.4539 17.181 73.3721 16.9356C72.7723 15.845 72.1724 14.7271 71.5726 13.5819C71.409 13.3365 71.4908 13.3365 71.7362 13.3365C72.3906 13.3365 73.045 13.3365 73.6994 13.3365Z" fill="#FEFEFE"/>
<path d="M44.4977 27.0785V29.287C43.189 29.287 40.9805 29.287 40.6533 29.287C36.8906 29.2052 34.1095 26.3423 34.1095 22.416C34.055 18.4898 34.0277 14.5635 34.0277 10.6372C34.0277 10.5827 34.0277 10.5554 34.0277 10.5554V9.16488V9.00129V4.66603C34.0277 4.58424 34.1095 4.50244 34.2731 4.50244H37.7904C37.8722 4.50244 37.954 4.58424 37.954 4.66603V10.5554C37.954 10.61 37.954 10.6372 37.954 10.6372C37.954 14.5635 37.9812 18.517 38.0357 22.4978C38.1175 23.9702 39.1809 25.1153 40.6533 25.1153C41.4712 25.1153 42.9436 25.1153 44.4977 25.1153V27.0785Z" fill="#FEFEFE"/>
<path fill-rule="evenodd" clip-rule="evenodd" d="M4.82605 7.03814V23.234C4.82605 23.7248 4.98963 23.8066 5.48042 24.052C8.42512 25.0335 12.106 26.1787 15.0507 27.1603C15.3779 27.2421 15.2961 27.1603 15.5415 26.9967L17.75 25.5243C17.8045 25.4698 17.8318 25.4153 17.8318 25.3607V24.3792C17.8318 24.2156 17.8318 24.2973 17.6682 24.2155C15.1325 23.3976 11.697 22.2524 9.16129 21.4345C8.9159 21.3527 8.67053 20.9437 8.67053 20.6983V6.38377C8.67053 5.5658 8.83412 4.74782 9.4885 4.25704C9.59756 4.14797 9.73389 4.09344 9.89749 4.09344C9.78842 4.09344 9.67934 4.09344 9.57028 4.09344C9.40668 4.09344 9.27036 4.09344 9.16129 4.09344C8.9977 4.14798 8.86137 4.17523 8.75231 4.17523C8.58871 4.22977 8.45238 4.28431 8.34332 4.33884C8.23426 4.33884 8.12517 4.3661 8.01611 4.42063C7.85252 4.47516 7.71619 4.50243 7.60713 4.50243C7.49806 4.55696 7.41628 4.61149 7.36174 4.66602C7.25268 4.72055 7.14365 4.77508 7.03458 4.82961C6.92552 4.88415 6.81644 4.93868 6.70738 4.99321C6.59831 5.10227 6.48923 5.18407 6.38017 5.2386C6.2711 5.34766 6.16207 5.42946 6.05301 5.48399C5.99848 5.53853 5.94394 5.59306 5.8894 5.64759C5.78034 5.75665 5.69855 5.83845 5.64402 5.89298C5.58949 5.94751 5.53495 6.02931 5.48042 6.13838L5.23504 6.38377L4.98965 6.71095C4.93512 6.87455 4.88058 6.98361 4.82605 7.03814Z" fill="#E72E3C"/>
<path d="M0 6.95634L0.0818272 24.1338C0.0818272 25.9333 0.654408 27.5692 3.35372 28.5508L12.515 31.4137L13.7419 31.7409C14.9689 32.2317 16.0322 31.9863 17.0138 31.3319L21.6763 28.5508C22.2488 28.2236 22.4942 27.7328 22.4942 27.2421V25.1971V4.91141C22.4942 3.68446 22.2488 3.27546 21.1037 2.94827L12.5968 0.412567C11.5334 0.0853783 9.89746 -0.323608 8.58871 0.412567L6.2984 1.72132C5.56222 2.0485 4.82606 2.53929 4.82606 4.09344V6.87454C4.82606 6.82001 4.8533 6.76548 4.90783 6.71095C4.98963 6.54736 5.23503 6.22017 5.48042 5.89298C5.69855 5.62032 5.97121 5.37493 6.2984 5.15681C7.60715 4.17524 9.97926 3.60266 11.4516 4.09344L12.1878 4.33884C12.3514 4.33884 12.5423 4.39336 12.7604 4.50243L18.0772 6.13837C18.1863 6.13837 18.2953 6.22017 18.4044 6.38377C18.5134 6.54736 18.568 6.71095 18.568 6.87454V25.9333C18.568 25.9878 18.5407 26.0151 18.4862 26.0151L15.3779 28.1418C15.3233 28.1963 15.2688 28.1963 15.2143 28.1418L4.90783 24.9517C4.17166 24.7063 3.92629 24.3791 4.00808 23.643V3.35726V3.19367C2.37214 4.17523 0.0817972 4.99321 0 6.95634Z" fill="#FEFEFE"/>
</svg>
