<svg width="255" height="254" viewBox="0 0 255 254" fill="none" xmlns="http://www.w3.org/2000/svg">
<path d="M127.5 254C197.64 254 254.5 197.14 254.5 127C254.5 56.8598 197.64 0 127.5 0C57.3598 0 0.5 56.8598 0.5 127C0.5 197.14 57.3598 254 127.5 254Z" fill="url(#paint0_linear_627_4518)"/>
<path d="M172.461 48H83.4833C80.1725 48 76.9973 49.3181 74.6563 51.6645C72.3152 54.0108 71 57.193 71 60.5112V162.13H71.1526V197.815C71.1525 199.193 71.5047 200.548 72.1756 201.75C72.8465 202.953 73.8137 203.963 74.985 204.685C76.1562 205.406 77.4924 205.815 78.866 205.872C80.2396 205.928 81.6048 205.631 82.8314 205.009L123.874 184.157C124.992 183.595 126.225 183.302 127.476 183.302C128.727 183.302 129.961 183.595 131.079 184.157L173.384 205.162C174.611 205.771 175.973 206.057 177.341 205.991C178.71 205.925 180.038 205.51 181.202 204.785C182.365 204.061 183.325 203.05 183.989 201.85C184.654 200.65 185.002 199.299 185 197.926L184.889 162.13V60.4765C184.88 57.1739 183.568 54.0089 181.24 51.6717C178.912 49.3345 175.756 48.0147 172.461 48Z" fill="url(#paint1_linear_627_4518)"/>
<g filter="url(#filter0_f_627_4518)">
<ellipse cx="118.613" cy="137.179" rx="52.1402" ry="11.1729" fill="#FF7C86" fill-opacity="0.39"/>
</g>
<path fill-rule="evenodd" clip-rule="evenodd" d="M173.157 97.0089C173.157 112.941 160.186 125.856 144.19 125.856C141.275 125.856 134.629 125.187 131.398 122.501L127.356 126.526C124.977 128.895 125.619 129.592 126.677 130.738C127.117 131.219 127.631 131.774 128.029 132.566C128.029 132.566 131.398 137.26 128.029 141.958C126.008 144.639 120.348 148.393 113.885 141.958L112.538 143.296C112.538 143.296 116.576 147.994 113.212 152.692C111.19 155.373 105.8 158.054 101.084 153.361L96.3724 158.054C93.1366 161.276 89.1857 159.397 87.6182 158.054L83.5712 154.03C79.7991 150.272 81.9991 146.202 83.5712 144.634L118.597 109.755C118.597 109.755 115.228 104.393 115.228 97.0135C115.228 81.0818 128.199 68.166 144.195 68.166C160.191 68.166 173.157 81.0819 173.157 97.0089Z" fill="url(#paint2_linear_627_4518)"/>
<path d="M154.297 97.0142C154.291 99.6877 153.223 102.249 151.329 104.136C149.435 106.022 146.869 107.08 144.195 107.075C141.522 107.08 138.956 106.022 137.062 104.136C135.167 102.249 134.1 99.6877 134.094 97.0142C134.096 95.6901 134.359 94.3793 134.868 93.1569C135.377 91.9345 136.122 90.8242 137.06 89.8896C137.998 88.955 139.111 88.2143 140.335 87.7098C141.56 87.2053 142.871 86.9468 144.195 86.9492C145.52 86.9468 146.831 87.2053 148.056 87.7098C149.28 88.2143 150.393 88.955 151.331 89.8896C152.269 90.8242 153.014 91.9345 153.523 93.1569C154.031 94.3793 154.295 95.6901 154.297 97.0142Z" fill="#A85F00"/>
<path d="M205.524 89.0463C205.209 87.8116 206.349 86.6991 207.575 87.0438L215.856 89.3707C217.082 89.7154 217.476 91.2588 216.564 92.1488L210.409 98.1562C209.497 99.0462 207.964 98.6153 207.649 97.3806L205.524 89.0463Z" fill="#FD9C1D"/>
<path d="M14.3421 89.0463C14.0273 87.8116 15.1672 86.6991 16.3938 87.0438L24.674 89.3707C25.9007 89.7154 26.2942 91.2588 25.3823 92.1488L19.2271 98.1562C18.3153 99.0462 16.7819 98.6153 16.4671 97.3806L14.3421 89.0463Z" fill="#FD9C1D"/>
<path d="M96.1333 7.99867C96.6226 5.97173 99.5057 5.97173 99.9949 7.99866L101.642 14.8206C101.817 15.5449 102.382 16.1105 103.106 16.2853L109.928 17.9321C111.955 18.4214 111.955 21.3045 109.928 21.7938L103.106 23.4406C102.382 23.6154 101.817 24.181 101.642 24.9053L99.995 31.7272C99.5057 33.7542 96.6226 33.7542 96.1333 31.7272L94.4865 24.9053C94.3117 24.181 93.7461 23.6154 93.0218 23.4406L86.1998 21.7938C84.1729 21.3045 84.1729 18.4214 86.1998 17.9321L93.0218 16.2853C93.7461 16.1105 94.3117 15.5449 94.4865 14.8206L96.1333 7.99867Z" fill="#FD9C1D"/>
<path d="M123.164 208.768C123.164 211.282 121.126 213.32 118.612 213.32C116.098 213.32 114.06 211.282 114.06 208.768C114.06 206.254 116.098 204.216 118.612 204.216C121.126 204.216 123.164 206.254 123.164 208.768Z" stroke="#E17F00" stroke-width="2.48287"/>
<path d="M204.409 171.249C204.898 169.222 207.781 169.222 208.27 171.249L209.917 178.071C210.092 178.795 210.658 179.36 211.382 179.535L218.204 181.182C220.231 181.671 220.231 184.554 218.204 185.044L211.382 186.691C210.658 186.865 210.092 187.431 209.917 188.155L208.27 194.977C207.781 197.004 204.898 197.004 204.409 194.977L202.762 188.155C202.587 187.431 202.021 186.865 201.297 186.691L194.475 185.044C192.448 184.554 192.448 181.671 194.475 181.182L201.297 179.535C202.021 179.36 202.587 178.795 202.762 178.071L204.409 171.249Z" fill="#E17F00"/>
<path d="M20.1333 144.999C20.6226 142.972 23.5057 142.972 23.9949 144.999L25.6417 151.821C25.8166 152.545 26.3821 153.11 27.1065 153.285L33.9284 154.932C35.9553 155.421 35.9553 158.304 33.9284 158.794L27.1065 160.441C26.3821 160.615 25.8166 161.181 25.6417 161.905L23.995 168.727C23.5057 170.754 20.6226 170.754 20.1333 168.727L18.4865 161.905C18.3117 161.181 17.7461 160.615 17.0218 160.441L10.1998 158.794C8.17291 158.304 8.1729 155.421 10.1998 154.932L17.0218 153.285C17.7461 153.11 18.3117 152.545 18.4865 151.821L20.1333 144.999Z" fill="#E17F00"/>
<circle cx="212.133" cy="142.559" r="4.55192" stroke="#FD9C1D" stroke-width="2.48287"/>
<defs>
<filter id="filter0_f_627_4518" x="45.7821" y="105.315" width="145.662" height="63.7268" filterUnits="userSpaceOnUse" color-interpolation-filters="sRGB">
<feFlood flood-opacity="0" result="BackgroundImageFix"/>
<feBlend mode="normal" in="SourceGraphic" in2="BackgroundImageFix" result="shape"/>
<feGaussianBlur stdDeviation="10.3453" result="effect1_foregroundBlur_627_4518"/>
</filter>
<linearGradient id="paint0_linear_627_4518" x1="126.521" y1="-41.3543" x2="129.123" y2="404.65" gradientUnits="userSpaceOnUse">
<stop stopColor="#FFD966" stop-opacity="0.38"/>
<stop offset="1" stopColor="#FFD966"/>
</linearGradient>
<linearGradient id="paint1_linear_627_4518" x1="71" y1="-2.5" x2="136.423" y2="187.854" gradientUnits="userSpaceOnUse">
<stop stopColor="#FD9C1D"/>
<stop offset="1" stopColor="#FFF4E6"/>
</linearGradient>
<linearGradient id="paint2_linear_627_4518" x1="127.323" y1="68.166" x2="87.8232" y2="152.998" gradientUnits="userSpaceOnUse">
<stop offset="0.10445" stopColor="#FD9C1D"/>
<stop offset="1" stopColor="#A85F00"/>
</linearGradient>
</defs>
</svg>
