<svg width="231" height="254" viewBox="0 0 231 254" fill="none" xmlns="http://www.w3.org/2000/svg">
<path d="M115.5 254C179.013 254 230.5 202.513 230.5 139C230.5 75.4873 179.013 24 115.5 24C51.9872 24 0.5 75.4873 0.5 139C0.5 202.513 51.9872 254 115.5 254Z" fill="url(#paint0_linear_627_4445)"/>
<g filter="url(#filter0_f_627_4445)">
<ellipse cx="119.113" cy="155.179" rx="52.1402" ry="11.1729" fill="#FF7C86" fill-opacity="0.39"/>
</g>
<g clipPath="url(#clip0_627_4445)">
<rect x="46" y="69" width="140" height="140" rx="70" fill="white"/>
<path d="M116 69C77.4008 69 46 100.401 46 139C46 177.599 77.4008 209 116 209C154.599 209 186 177.599 186 139C186 100.401 154.599 69 116 69ZM115.469 158.944C113.212 161.202 110.243 162.327 107.262 162.327C104.281 162.327 101.283 161.19 99.0017 158.915L82.7733 143.188L90.8992 134.806L107.192 150.597L141.077 117.341L149.267 125.653L115.469 158.944Z" fill="#46B753"/>
</g>
<path d="M206.023 107.046C205.708 105.812 206.848 104.699 208.075 105.044L216.355 107.371C217.581 107.715 217.975 109.259 217.063 110.149L210.908 116.156C209.996 117.046 208.463 116.615 208.148 115.381L206.023 107.046Z" fill="#46B753"/>
<path d="M14.8421 107.046C14.5273 105.812 15.6672 104.699 16.8938 105.044L25.174 107.371C26.4007 107.715 26.7942 109.259 25.8823 110.149L19.7271 116.156C18.8153 117.046 17.2819 116.615 16.9671 115.381L14.8421 107.046Z" fill="#46B753"/>
<path d="M79.1108 7.99867C79.6001 5.97173 82.4832 5.97173 82.9725 7.99866L84.6193 14.8206C84.7941 15.5449 85.3597 16.1105 86.084 16.2853L92.9059 17.9321C94.9329 18.4214 94.9329 21.3045 92.9059 21.7938L86.084 23.4406C85.3597 23.6154 84.7941 24.181 84.6193 24.9053L82.9725 31.7272C82.4832 33.7542 79.6001 33.7542 79.1108 31.7272L77.464 24.9053C77.2892 24.181 76.7236 23.6154 75.9993 23.4406L69.1774 21.7938C67.1504 21.3045 67.1504 18.4214 69.1774 17.9321L75.9993 16.2853C76.7236 16.1105 77.2892 15.5449 77.464 14.8206L79.1108 7.99867Z" fill="#46B753"/>
<path d="M123.665 226.768C123.665 229.282 121.627 231.32 119.113 231.32C116.599 231.32 114.561 229.282 114.561 226.768C114.561 224.254 116.599 222.216 119.113 222.216C121.627 222.216 123.665 224.254 123.665 226.768Z" fill="#46B753" stroke="#46B753" stroke-width="2.48287"/>
<path d="M204.91 189.249C205.399 187.222 208.282 187.222 208.771 189.249L210.418 196.071C210.593 196.795 211.158 197.36 211.883 197.535L218.705 199.182C220.732 199.671 220.732 202.554 218.705 203.044L211.883 204.691C211.158 204.865 210.593 205.431 210.418 206.155L208.771 212.977C208.282 215.004 205.399 215.004 204.91 212.977L203.263 206.155C203.088 205.431 202.522 204.865 201.798 204.691L194.976 203.044C192.949 202.554 192.949 199.671 194.976 199.182L201.798 197.535C202.522 197.36 203.088 196.795 203.263 196.071L204.91 189.249Z" fill="#46B753"/>
<circle cx="212.633" cy="160.559" r="4.55192" fill="#46B753" stroke="#46B753" stroke-width="2.48287"/>
<defs>
<filter id="filter0_f_627_4445" x="46.2821" y="123.315" width="145.661" height="63.7268" filterUnits="userSpaceOnUse" color-interpolation-filters="sRGB">
<feFlood flood-opacity="0" result="BackgroundImageFix"/>
<feBlend mode="normal" in="SourceGraphic" in2="BackgroundImageFix" result="shape"/>
<feGaussianBlur stdDeviation="10.3453" result="effect1_foregroundBlur_627_4445"/>
</filter>
<linearGradient id="paint0_linear_627_4445" x1="114.613" y1="-13.4468" x2="116.969" y2="390.416" gradientUnits="userSpaceOnUse">
<stop stopColor="#EDFAEF"/>
<stop offset="1" stopColor="#34A853"/>
</linearGradient>
<clipPath id="clip0_627_4445">
<rect x="46" y="69" width="140" height="140" rx="70" fill="white"/>
</clipPath>
</defs>
</svg>
